<svg width="15" height="24" viewBox="0 0 15 24" fill="none" xmlns="http://www.w3.org/2000/svg">
<path d="M4.8882 12.0051L13.8665 3.02634C14.1138 2.77971 14.2498 2.44995 14.2498 2.09834C14.2498 1.74654 14.1138 1.41698 13.8665 1.16995L13.0798 0.38361C12.833 0.136195 12.503 0 12.1514 0C11.7998 0 11.4703 0.136195 11.2232 0.38361L0.533078 11.0736C0.285078 11.3214 0.149273 11.6525 0.150249 12.0045C0.149273 12.358 0.284883 12.6888 0.533078 12.9368L11.2133 23.6164C11.4603 23.8638 11.7899 24 12.1417 24C12.4933 24 12.8228 23.8638 13.0701 23.6164L13.8566 22.83C14.3684 22.3182 14.3684 21.4851 13.8566 20.9735L4.8882 12.0051Z" fill="white"/>
</svg>
