<svg width="51" height="50" viewBox="0 0 51 50" fill="none"
    xmlns="http://www.w3.org/2000/svg">
    <defs>
        <linearGradient id="paint0_linear" x1="25.5" y1="0" x2="25.5" y2="50" gradientUnits="userSpaceOnUse">
            <stop stop-color="#FDC830"/>
            <stop offset="1" stop-color="#F37335"/>
        </linearGradient>
    </defs>
    <g clip-path="url(#clip0)">
        <circle cx="25.5" cy="25" r="25" fill="url(#paint0_linear)"/>
        <path d="M34.6683 22.6594H32.6763V19.9701C32.6763 15.8511 29.3252 12.5 25.2062 12.5C21.0872 12.5 17.7361 15.8511 17.7361 19.9701V22.6594H15.744C14.9189 22.6594 14.25 23.3283 14.25 24.1534V36.006C14.25 36.8311 14.9189 37.5 15.744 37.5H34.6683C35.4934 37.5 36.1623 36.8311 36.1623 36.006V24.1534C36.1623 23.3283 35.4934 22.6594 34.6683 22.6594ZM26.7002 30.5406V31.1255C26.7002 31.9506 26.0313 32.6195 25.2062 32.6195C24.3811 32.6195 23.7122 31.9506 23.7122 31.1255V30.5406C23.1323 30.3354 22.7161 29.7837 22.7161 29.1335C22.7161 28.3084 23.3851 27.6394 24.2102 27.6394H26.2022C27.0273 27.6394 27.6962 28.3084 27.6962 29.1335C27.6962 29.7837 27.2801 30.3354 26.7002 30.5406ZM29.6882 22.6594H20.7241V19.9701C20.7241 17.4987 22.7348 15.488 25.2062 15.488C27.6776 15.488 29.6882 17.4987 29.6882 19.9701V22.6594Z" fill="white"/>
    </g>
</svg>
