<svg width="51" height="50" viewBox="0 0 51 50" fill="none"
    xmlns="http://www.w3.org/2000/svg">
    <defs>
        <linearGradient id="paint0_linear" x1="25.5" y1="0" x2="25.5" y2="50" gradientUnits="userSpaceOnUse">
            <stop stop-color="#FDC830"/>
            <stop offset="1" stop-color="#F37335"/>
        </linearGradient>
    </defs>
    <g clip-path="url(#clip0)">
        <circle cx="25.5" cy="25" r="25" fill="url(#paint0_linear)"/>
        <path fill-rule="evenodd" clip-rule="evenodd" d="M30.0285 22.7784C28.858 23.9492 27.4254 24.5425 25.771 24.5425C24.1169 24.5425 22.6845 23.949 21.5138 22.7786C20.3431 21.6081 19.7495 20.1757 19.7495 18.5211C19.7495 16.8668 20.3431 15.4344 21.5136 14.2639C22.6842 13.0934 24.1164 12.5 25.771 12.5C27.4252 12.5 28.8576 13.0934 30.0283 14.2637C31.1991 15.4346 31.7924 16.867 31.7924 18.5211C31.7924 20.1757 31.1991 21.6079 30.0285 22.7784ZM36.1043 30.144C36.2049 30.7051 36.2731 31.2365 36.3069 31.7236C36.3403 32.1997 36.3573 32.6966 36.3575 33.2003C36.3575 34.5059 35.9426 35.5625 35.1244 36.3411C34.3162 37.1101 33.2475 37.5 31.9475 37.5H19.9099C18.6099 37.5 17.5408 37.11 16.7329 36.3411C15.9148 35.562 15.5 34.5055 15.5 33.2005C15.5 32.6991 15.5168 32.2026 15.55 31.7242C15.5837 31.2359 15.652 30.7044 15.7525 30.144C15.854 29.5787 15.9847 29.0444 16.1409 28.5559C16.3026 28.0507 16.5223 27.5523 16.7937 27.0745C17.0753 26.5788 17.4066 26.1472 17.7779 25.7916C18.1668 25.4195 18.6427 25.1206 19.1924 24.903C19.7404 24.686 20.3477 24.5759 20.9977 24.5759C21.2529 24.5759 21.4999 24.6806 21.976 24.9909C22.2737 25.1849 22.617 25.4062 22.9964 25.6486C23.3235 25.8573 23.7671 26.0528 24.3146 26.2296C24.8497 26.4026 25.3924 26.4903 25.9282 26.4903C26.4639 26.4903 27.0068 26.4026 27.5414 26.2296C28.0894 26.0526 28.533 25.8571 28.8605 25.6484C29.2435 25.4037 29.5866 25.1824 29.88 24.9911C30.3566 24.6808 30.6034 24.5761 30.8586 24.5761C31.5084 24.5761 32.1159 24.686 32.6641 24.9028C33.2142 25.1208 33.6899 25.4197 34.0784 25.7915C34.4499 26.1468 34.781 26.5786 35.0629 27.0745C35.3346 27.5523 35.5543 28.0509 35.7158 28.5558C35.8722 29.0442 36.0029 29.5787 36.1043 30.144Z" fill="white"/>
    </g>

</svg>
