<svg width="70" height="70" viewBox="0 0 70 70" fill="none" xmlns="http://www.w3.org/2000/svg">
<g clip-path="url(#clip0)">
<circle cx="35" cy="35" r="35" fill="#E0E0E0"/>
<path fill-rule="evenodd" clip-rule="evenodd" d="M40.4649 31.8898C38.8262 33.5288 36.8206 34.3595 34.5044 34.3595C32.1887 34.3595 30.1834 33.5285 28.5443 31.8901C26.9053 30.2513 26.0743 28.246 26.0743 25.9295C26.0743 23.6136 26.9053 21.6082 28.5441 19.9695C30.1828 18.3307 32.1879 17.5 34.5044 17.5C36.8203 17.5 38.8257 18.3307 40.4647 19.9692C42.1037 21.6085 42.9344 23.6138 42.9344 25.9295C42.9344 28.246 42.1037 30.2511 40.4649 31.8898ZM48.9711 42.2016C49.1118 42.9872 49.2074 43.7311 49.2547 44.4131C49.3014 45.0796 49.3252 45.7752 49.3254 46.4804C49.3254 48.3082 48.7447 49.7875 47.5991 50.8775C46.4677 51.9542 44.9716 52.5 43.1515 52.5H26.2989C24.4789 52.5 22.9822 51.9539 21.8511 50.8775C20.7058 49.7867 20.125 48.3077 20.125 46.4807C20.125 45.7787 20.1485 45.0836 20.195 44.4139C20.2422 43.7303 20.3378 42.9861 20.4785 42.2016C20.6206 41.4101 20.8035 40.6622 21.0222 39.9783C21.2486 39.271 21.5563 38.5732 21.9362 37.9043C22.3304 37.2103 22.7942 36.606 23.3141 36.1083C23.8586 35.5873 24.5248 35.1689 25.2944 34.8642C26.0615 34.5603 26.9118 34.4063 27.8218 34.4063C28.1791 34.4063 28.5249 34.5529 29.1914 34.9873C29.6082 35.2589 30.0888 35.5686 30.6199 35.908C31.0779 36.2001 31.699 36.4739 32.4654 36.7214C33.2146 36.9636 33.9743 37.0864 34.7244 37.0864C35.4745 37.0864 36.2345 36.9636 36.9829 36.7214C37.7501 36.4736 38.3712 36.1999 38.8297 35.9078C39.3659 35.5652 39.8463 35.2554 40.2569 34.9876C40.9242 34.5531 41.2698 34.4065 41.6271 34.4065C42.5368 34.4065 43.3873 34.5603 44.1547 34.8639C44.9248 35.1692 45.5908 35.5876 46.1347 36.108C46.6549 36.6055 47.1185 37.21 47.5131 37.9043C47.8934 38.5732 48.201 39.2712 48.4272 39.978C48.6461 40.6619 48.829 41.4101 48.9711 42.2016Z" fill="#9E9E9E"/>
</g>
<defs>
<clipPath id="clip0">
<rect width="69.9997" height="70" fill="white"/>
</clipPath>
</defs>
</svg>
