<svg width="51" height="50" viewBox="0 0 51 50" fill="none"
    xmlns="http://www.w3.org/2000/svg">
    <defs>
        <linearGradient id="paint0_linear" x1="25.5" y1="0" x2="25.5" y2="50" gradientUnits="userSpaceOnUse">
            <stop stop-color="#FDC830"/>
            <stop offset="1" stop-color="#F37335"/>
        </linearGradient>
    </defs>
    <g clip-path="url(#clip0)">
        <circle cx="25.5" cy="25" r="25" fill="url(#paint0_linear)"/>
        <path fill-rule="evenodd" clip-rule="evenodd" d="M25.0832 24.5836C25.0832 24.0087 25.5488 23.542 26.1248 23.542C26.7008 23.542 27.1664 24.0087 27.1664 24.5836V28.7503C27.1664 30.4732 25.7644 31.8753 24.0415 31.8753H20.9165V32.9169C20.9165 34.0658 19.9823 35.0002 18.8333 35.0002C18.6113 35.0002 18.4 34.969 18.1875 34.9034L11.9187 32.8137C11.0667 32.5179 10.5 31.7231 10.5 30.8335V12.0837C10.5 10.9347 11.4344 10.0005 12.5834 10.0005C12.6121 10.0005 12.6398 10.0064 12.6675 10.0124C12.689 10.017 12.7104 10.0215 12.7323 10.0234C12.7485 10.0212 12.7637 10.0169 12.7788 10.0125C12.7998 10.0065 12.8207 10.0005 12.8437 10.0005H24.0415C25.7644 10.0005 27.1664 11.4026 27.1664 13.1255V16.2504C27.1664 16.8253 26.7008 17.292 26.1248 17.292C25.5488 17.292 25.0832 16.8253 25.0832 16.2504V13.1255C25.0832 12.5514 24.6165 12.0837 24.0415 12.0837H19.1894L19.4978 12.1869C20.3498 12.4827 20.9165 13.2775 20.9165 14.1671V29.7919H24.0415C24.6165 29.7919 25.0832 29.3242 25.0832 28.7503V24.5836ZM31.0278 15.514L35.1946 19.6806C35.6018 20.0878 35.6018 20.7462 35.1946 21.1534L31.0278 25.3202C30.7301 25.6179 30.2821 25.7075 29.8926 25.5462C29.5041 25.3846 29.2498 25.0045 29.2498 24.5835V21.4586H25.0833C24.5082 21.4586 24.0415 20.992 24.0415 20.417C24.0415 19.8419 24.5082 19.3754 25.0833 19.3754H29.2498V16.2504C29.2498 15.8295 29.5041 15.4494 29.8926 15.2878C30.2821 15.1264 30.7301 15.2161 31.0278 15.514Z" fill="white"/>
    </g>
</svg>
