<svg width="10" height="16" viewBox="0 0 10 16" fill="none"
    xmlns="http://www.w3.org/2000/svg">
    <g clip-path="url(#clip0)">
        <path d="M6.44487 7.99683L0.83341 13.6085C0.678898 13.7627 0.593898 13.9688 0.593898 14.1885C0.593898 14.4084 0.678898 14.6144 0.83341 14.7688L1.32512 15.2602C1.47939 15.4149 1.68561 15.5 1.90536 15.5C2.12512 15.5 2.33109 15.4149 2.48548 15.2602L9.16683 8.57902C9.32183 8.42415 9.4067 8.2172 9.40609 7.9972C9.4067 7.77622 9.32195 7.56951 9.16683 7.41451L2.4917 0.739758C2.33731 0.585124 2.13134 0.500002 1.91146 0.500002C1.6917 0.500002 1.48573 0.585124 1.33121 0.739758L0.839628 1.23122C0.51975 1.5511 0.51975 2.07183 0.839628 2.39159L6.44487 7.99683Z" fill="#E0E0E0"/>
    </g>
</svg>
