<svg width="23" height="19" viewBox="0 0 23 19" fill="none" xmlns="http://www.w3.org/2000/svg">
<path fill-rule="evenodd" clip-rule="evenodd" d="M14.5682 12C18.4468 12 21.2044 14.0891 21.9262 17.1612L21.9723 17.3722C22.1207 18.1046 21.658 18.8209 20.9386 18.9721C20.8502 18.9906 20.7601 19 20.6698 19H8.35015C7.60448 19 7 18.3845 7 17.6252C7 17.55 7.00606 17.475 7.0181 17.4009L7.04061 17.2906C7.78983 14.2509 10.6014 12 14.5682 12ZM3.75 6.5C4.1297 6.5 4.44349 6.78215 4.49315 7.14823L4.5 7.25V9.25H6.5C6.8797 9.25 7.19349 9.53215 7.24315 9.89823L7.25 10C7.25 10.3797 6.96785 10.6935 6.60177 10.7432L6.5 10.75H4.5V12.75C4.5 13.1297 4.21785 13.4435 3.85177 13.4932L3.75 13.5C3.3703 13.5 3.05651 13.2178 3.00685 12.8518L3 12.75V10.75H1C0.620304 10.75 0.306509 10.4678 0.256847 10.1018L0.25 10C0.25 9.6203 0.532154 9.30651 0.898229 9.25685L1 9.25H3V7.25C3 6.90482 3.23319 6.61411 3.55062 6.52679L3.64823 6.50685L3.75 6.5ZM18.6564 2.34146C19.6542 4.04299 19.8394 6.12136 19.212 8.57659C19.1665 8.83154 19.3308 9.03621 19.705 9.1906L19.754 9.20907L19.8154 9.22927C19.9541 9.27229 20.0313 9.41858 19.9879 9.55603C19.9756 9.59505 19.9543 9.63038 19.926 9.65938L19.8786 9.69782C19.2609 10.0894 17.4785 10.1183 16.4444 9.91546C15.7609 10.6385 15.0139 11 14.2032 11C13.3926 11 12.6373 10.6385 11.9373 9.91546C9.97911 9.76057 9 8.30636 9 5.55284C9 3.03199 10.0217 1.37522 12.065 0.582529C12.4173 0.445863 12.8041 0.422866 13.1703 0.516806L13.4415 0.586354C15.338 -0.585695 17.0763 -0.000658035 18.6564 2.34146Z" fill="black"/>
</svg>
