<svg width="22" height="20" viewBox="0 0 22 20" fill="none" xmlns="http://www.w3.org/2000/svg">
<path fill-rule="evenodd" clip-rule="evenodd" d="M7.40136 0.698417C7.78132 0.255125 8.33602 0 8.91987 0H13.0801C13.664 0 14.2187 0.255125 14.5986 0.698417L17 3.5H18.5714C20.465 3.5 22 5.03502 22 6.92857V16.0714C22 17.965 20.465 19.5 18.5714 19.5H3.42857C1.53502 19.5 0 17.965 0 16.0714V6.92857C0 5.03502 1.53502 3.5 3.42857 3.5H5L7.40136 0.698417ZM7 10.5C7 8.29086 8.79086 6.5 11 6.5C13.2091 6.5 15 8.29086 15 10.5C15 12.7091 13.2091 14.5 11 14.5C8.79086 14.5 7 12.7091 7 10.5ZM11 4.5C7.68629 4.5 5 7.18629 5 10.5C5 13.8137 7.68629 16.5 11 16.5C14.3137 16.5 17 13.8137 17 10.5C17 7.18629 14.3137 4.5 11 4.5Z" fill="black"/>
</svg>
