<svg width="23" height="23" viewBox="0 0 23 23" fill="none" xmlns="http://www.w3.org/2000/svg">
<path fill-rule="evenodd" clip-rule="evenodd" d="M0.496368 0H22.9964V22.5H0.496368V0ZM14.4964 21V15.5H8.99637V21H14.4964ZM15.9964 14H21.4964V8.5H15.9964V14ZM14.4964 14V8.5H8.99637V14H14.4964ZM15.9964 21H21.4964V15.5H15.9964V21ZM21.4964 1.5V7H15.9964V1.5H21.4964ZM14.4964 1.5V7H8.99637V1.5H14.4964ZM7.49637 8.5V14H1.99637V8.5H7.49637ZM7.49637 15.5V21H1.99637V15.5H7.49637ZM7.49637 7H1.99637V1.5H7.49637V7Z" fill="black"/>
</svg>
