<svg width="25" height="24" viewBox="0 0 25 24" fill="none" xmlns="http://www.w3.org/2000/svg">
<path d="M2.32367 10.351L2.99634 11.0909L2.99634 11.0909L2.32367 10.351ZM10.3773 22.6485V23.6485H11.3773V22.6485H10.3773ZM15.6154 22.6485H14.6154V23.6485H15.6154V22.6485ZM23.669 10.351L22.9963 11.0909L22.9963 11.0909L23.669 10.351ZM13.669 1.26006L14.3417 0.52012L14.3417 0.520119L13.669 1.26006ZM12.3237 1.26006L12.9963 2L12.3237 1.26006ZM2.99634 11.0909L2.99634 11.0909L1.65099 9.61103C1.23404 9.99007 0.996338 10.5274 0.996338 11.0909H2.99634ZM2.99634 21.6485V11.0909H0.996338V21.6485H2.99634ZM2.99634 21.6485H2.99634H0.996338C0.996338 22.7531 1.89177 23.6485 2.99634 23.6485V21.6485ZM10.3773 21.6485H2.99634V23.6485H10.3773V21.6485ZM11.3773 22.6485V16.2676H9.37729V22.6485H11.3773ZM11.3773 16.2676C11.3773 15.3734 12.1022 14.6485 12.9963 14.6485V12.6485C10.9976 12.6485 9.37729 14.2688 9.37729 16.2676H11.3773ZM12.9963 14.6485C13.8905 14.6485 14.6154 15.3734 14.6154 16.2676H16.6154C16.6154 14.2688 14.9951 12.6485 12.9963 12.6485V14.6485ZM14.6154 16.2676V22.6485H16.6154V16.2676H14.6154ZM22.9963 21.6485H15.6154V23.6485H22.9963V21.6485ZM22.9963 21.6485V23.6485C24.1009 23.6485 24.9963 22.7531 24.9963 21.6485H22.9963ZM22.9963 11.0909V21.6485H24.9963V11.0909H22.9963ZM22.9963 11.0909L22.9963 11.0909H24.9963C24.9963 10.5274 24.7586 9.99007 24.3417 9.61103L22.9963 11.0909ZM12.9963 2L22.9963 11.0909L24.3417 9.61103L14.3417 0.52012L12.9963 2ZM12.9963 2L12.9963 2L14.3417 0.520119C13.5788 -0.173373 12.4138 -0.173373 11.651 0.52012L12.9963 2ZM2.99634 11.0909L12.9963 2L11.651 0.52012L1.65099 9.61103L2.99634 11.0909Z" fill="black"/>
</svg>
