<svg width="24" height="23" viewBox="0 0 24 23" fill="none" xmlns="http://www.w3.org/2000/svg">
<path d="M17.723 20.3725L18.0392 19.4238C17.754 19.3287 17.4411 19.367 17.1872 19.5281L17.723 20.3725ZM20.9779 17.1175L20.1335 16.5818C19.9725 16.8357 19.9342 17.1485 20.0292 17.4338L20.9779 17.1175ZM22.6054 22L22.2892 22.9487C22.6485 23.0684 23.0447 22.9749 23.3125 22.7071C23.5804 22.4392 23.6739 22.0431 23.5541 21.6837L22.6054 22ZM12.1054 23C14.3669 23 16.4788 22.3462 18.2587 21.2169L17.1872 19.5281C15.7182 20.4601 13.9764 21 12.1054 21V23ZM0.605408 11.5C0.605408 17.8513 5.75413 23 12.1054 23V21C6.8587 21 2.60541 16.7467 2.60541 11.5H0.605408ZM12.1054 0C5.75413 0 0.605408 5.14873 0.605408 11.5H2.60541C2.60541 6.25329 6.8587 2 12.1054 2V0ZM23.6054 11.5C23.6054 5.14873 18.4567 0 12.1054 0V2C17.3521 2 21.6054 6.25329 21.6054 11.5H23.6054ZM21.8223 17.6533C22.9516 15.8733 23.6054 13.7615 23.6054 11.5H21.6054C21.6054 13.371 21.0656 15.1128 20.1335 16.5818L21.8223 17.6533ZM20.0292 17.4338L21.6567 22.3162L23.5541 21.6837L21.9266 16.8013L20.0292 17.4338ZM22.9216 21.0513L18.0392 19.4238L17.4067 21.3212L22.2892 22.9487L22.9216 21.0513Z" fill="black"/>
</svg>
