<svg width="23" height="24" viewBox="0 0 23 24" fill="none" xmlns="http://www.w3.org/2000/svg">
<path fill-rule="evenodd" clip-rule="evenodd" d="M20.6642 1.33575C19.8832 0.554706 18.6168 0.554705 17.8358 1.33575L16.2822 2.88931L4.97892 14.1926L4.69404 14.4775L4.68622 14.8803L4.62886 17.8372L4.60869 18.8765L5.64807 18.8564L8.60492 18.799L9.00774 18.7912L9.29263 18.5063L20.5959 7.20301L22.1495 5.64946C22.9305 4.86841 22.9305 3.60208 22.1495 2.82103L20.6642 1.33575ZM19.25 2.74997L20.7353 4.23524L19.8888 5.08169L18.4036 3.59642L19.25 2.74997ZM16.9893 5.01063L18.4746 6.4959L8.1633 16.8072L6.64864 16.8366L6.67803 15.3219L16.9893 5.01063ZM2.25 7.33575C2.25 5.6789 3.59315 4.33575 5.25 4.33575H11.75C12.3023 4.33575 12.75 3.88804 12.75 3.33575C12.75 2.78347 12.3023 2.33575 11.75 2.33575H5.25C2.48858 2.33575 0.25 4.57433 0.25 7.33575V18.3358C0.25 21.0972 2.48858 23.3358 5.25 23.3358H16.25C19.0114 23.3358 21.25 21.0972 21.25 18.3358V11.8358C21.25 11.2835 20.8023 10.8358 20.25 10.8358C19.6977 10.8358 19.25 11.2835 19.25 11.8358V18.3358C19.25 19.9926 17.9069 21.3358 16.25 21.3358H5.25C3.59315 21.3358 2.25 19.9926 2.25 18.3358V7.33575Z" fill="black"/>
</svg>
