<svg width="25" height="25" viewBox="0 0 25 25" fill="none" xmlns="http://www.w3.org/2000/svg">
<path fill-rule="evenodd" clip-rule="evenodd" d="M12.5143 0.75H12.557H12.5997C14.4295 0.749995 15.8611 0.74999 17.0128 0.83967C18.1844 0.930891 19.1499 1.11936 20.0281 1.54225C21.6609 2.32859 22.9784 3.64607 23.7648 5.27893C24.1877 6.15707 24.3761 7.12259 24.4673 8.29416C24.557 9.44593 24.557 10.8776 24.557 12.7073V12.75V12.7927C24.557 14.6224 24.557 16.0541 24.4673 17.2058C24.3761 18.3774 24.1877 19.3429 23.7648 20.2211C22.9784 21.8539 21.6609 23.1714 20.0281 23.9578C19.1499 24.3806 18.1844 24.5691 17.0128 24.6603C15.8611 24.75 14.4295 24.75 12.5997 24.75H12.557H12.5143C10.6846 24.75 9.25294 24.75 8.10117 24.6603C6.9296 24.5691 5.96408 24.3806 5.08594 23.9578C3.45308 23.1714 2.1356 21.8539 1.34926 20.2211C0.926364 19.3429 0.737898 18.3774 0.646677 17.2058C0.556997 16.0541 0.557001 14.6225 0.557007 12.7927V12.75V12.7073C0.557001 10.8775 0.556997 9.44592 0.646677 8.29416C0.737898 7.12259 0.926364 6.15707 1.34926 5.27893C2.1356 3.64607 3.45308 2.32859 5.08594 1.54225C5.96408 1.11936 6.9296 0.930891 8.10117 0.83967C9.25293 0.74999 10.6845 0.749995 12.5143 0.75ZM8.25642 2.83363C7.20221 2.91572 6.51504 3.07386 5.9537 3.34419C4.72906 3.93395 3.74095 4.92205 3.15119 6.1467C2.88087 6.70803 2.72272 7.39521 2.64064 8.44941C2.55771 9.51448 2.55701 10.8684 2.55701 12.75C2.55701 14.6316 2.55771 15.9855 2.64064 17.0506C2.72272 18.1048 2.88087 18.792 3.15119 19.3533C3.74095 20.5779 4.72906 21.5661 5.9537 22.1558C6.51504 22.4261 7.20221 22.5843 8.25642 22.6664C9.32148 22.7493 10.6754 22.75 12.557 22.75C14.4386 22.75 15.7925 22.7493 16.8576 22.6664C17.9118 22.5843 18.599 22.4261 19.1603 22.1558C20.385 21.5661 21.3731 20.5779 21.9628 19.3533C22.2331 18.792 22.3913 18.1048 22.4734 17.0506C22.5563 15.9855 22.557 14.6316 22.557 12.75C22.557 10.8684 22.5563 9.51448 22.4734 8.44941C22.3913 7.39521 22.2331 6.70803 21.9628 6.1467C21.3731 4.92205 20.385 3.93395 19.1603 3.34419C18.599 3.07386 17.9118 2.91572 16.8576 2.83363C15.7925 2.75071 14.4386 2.75 12.557 2.75C10.6754 2.75 9.32148 2.75071 8.25642 2.83363ZM12.557 6.75C13.1093 6.75 13.557 7.19772 13.557 7.75V11.75H17.557C18.1093 11.75 18.557 12.1977 18.557 12.75C18.557 13.3023 18.1093 13.75 17.557 13.75H13.557V17.75C13.557 18.3023 13.1093 18.75 12.557 18.75C12.0047 18.75 11.557 18.3023 11.557 17.75V13.75H7.55701C7.00472 13.75 6.55701 13.3023 6.55701 12.75C6.55701 12.1977 7.00472 11.75 7.55701 11.75H11.557V7.75C11.557 7.19772 12.0047 6.75 12.557 6.75Z" fill="black"/>
</svg>
