<svg width="24" height="24" viewBox="0 0 24 24" fill="none" xmlns="http://www.w3.org/2000/svg">
<path fill-rule="evenodd" clip-rule="evenodd" d="M12.3554 0.75C8.76556 0.75 5.85541 3.66015 5.85541 7.25C5.85541 10.8399 8.76556 13.75 12.3554 13.75C15.9453 13.75 18.8554 10.8399 18.8554 7.25C18.8554 3.66015 15.9453 0.75 12.3554 0.75ZM7.85541 7.25C7.85541 4.76472 9.87013 2.75 12.3554 2.75C14.8407 2.75 16.8554 4.76472 16.8554 7.25C16.8554 9.73528 14.8407 11.75 12.3554 11.75C9.87013 11.75 7.85541 9.73528 7.85541 7.25ZM2.85541 20.75C2.85541 19.093 4.19831 17.75 5.85478 17.75H18.856C20.5117 17.75 21.8554 19.0968 21.8554 20.75V23.75H23.8554V20.75C23.8554 17.994 21.618 15.75 18.856 15.75H5.85478C3.0934 15.75 0.855408 17.9887 0.855408 20.75V23.75H2.85541V20.75Z" fill="black"/>
</svg>
