<svg width="23" height="23" viewBox="0 0 23 23" fill="none" xmlns="http://www.w3.org/2000/svg">
<path fill-rule="evenodd" clip-rule="evenodd" d="M9.26899 4.32182H10.047L10.6204 3.79612L11.9964 2.53485L13.3723 3.79612L13.9458 4.32182H14.7237H19.9964C20.5487 4.32182 20.9964 4.76953 20.9964 5.32182V19.8217C20.9964 20.374 20.5487 20.8217 19.9964 20.8217H19.8074C19.1413 18.2338 16.7921 16.3217 13.9964 16.3217H9.99637C7.2006 16.3217 4.85144 18.2338 4.18538 20.8217H3.99637C3.44408 20.8217 2.99637 20.374 2.99637 19.8217V5.32182C2.99637 4.76953 3.44408 4.32182 3.99637 4.32182H9.26899ZM6.28711 20.8217H17.7056C17.1122 19.3558 15.6751 18.3217 13.9964 18.3217H9.99637C8.31767 18.3217 6.88049 19.3558 6.28711 20.8217ZM9.26899 2.32182H3.99637C2.33951 2.32182 0.996368 3.66496 0.996368 5.32182V19.8217C0.996368 21.4785 2.33951 22.8217 3.99637 22.8217H19.9964C21.6532 22.8217 22.9964 21.4785 22.9964 19.8217V5.32182C22.9964 3.66496 21.6532 2.32182 19.9964 2.32182H14.7237L12.3342 0.131423C12.1431 -0.0438077 11.8497 -0.0438076 11.6585 0.131423L9.26899 2.32182ZM16.9964 10.3217C16.9964 13.0831 14.7578 15.3217 11.9964 15.3217C9.23494 15.3217 6.99637 13.0831 6.99637 10.3217C6.99637 7.56023 9.23494 5.32166 11.9964 5.32166C14.7578 5.32166 16.9964 7.56023 16.9964 10.3217ZM14.9964 10.3217C14.9964 11.9785 13.6532 13.3217 11.9964 13.3217C10.3395 13.3217 8.99637 11.9785 8.99637 10.3217C8.99637 8.6648 10.3395 7.32166 11.9964 7.32166C13.6532 7.32166 14.9964 8.6648 14.9964 10.3217Z" fill="black"/>
</svg>
