<svg width="22" height="14" viewBox="0 0 22 14" fill="none" xmlns="http://www.w3.org/2000/svg">
<path fill-rule="evenodd" clip-rule="evenodd" d="M15 3.00049C15 2.20484 14.6839 1.44178 14.1213 0.879168C13.5587 0.316559 12.7956 0.000488281 12 0.000488281H3C2.20435 0.000488281 1.44129 0.316559 0.87868 0.879168C0.31607 1.44178 0 2.20484 0 3.00049V11.0005C0 11.7961 0.31607 12.5592 0.87868 13.1218C1.44129 13.6844 2.20435 14.0005 3 14.0005H12C12.7956 14.0005 13.5587 13.6844 14.1213 13.1218C14.6839 12.5592 15 11.7961 15 11.0005V8.94349L20.419 12.8135C20.5685 12.9202 20.7444 12.9837 20.9276 12.997C21.1107 13.0103 21.294 12.9729 21.4573 12.8889C21.6206 12.8049 21.7577 12.6776 21.8534 12.5209C21.9491 12.3642 21.9998 12.1841 22 12.0005V2.00049C22 1.81677 21.9494 1.63659 21.8538 1.47974C21.7581 1.32288 21.6211 1.19541 21.4578 1.11131C21.2944 1.02721 21.1111 0.989739 20.9278 1.003C20.7446 1.01626 20.5685 1.07975 20.419 1.18649L15 5.05649V3.00049ZM15.72 7.00049L20 3.94349V10.0575L15.72 7.00049ZM12 2.00049C12.2652 2.00049 12.5196 2.10585 12.7071 2.29338C12.8946 2.48092 13 2.73527 13 3.00049V11.0005C13 11.2657 12.8946 11.5201 12.7071 11.7076C12.5196 11.8951 12.2652 12.0005 12 12.0005H3C2.73478 12.0005 2.48043 11.8951 2.29289 11.7076C2.10536 11.5201 2 11.2657 2 11.0005V3.00049C2 2.73527 2.10536 2.48092 2.29289 2.29338C2.48043 2.10585 2.73478 2.00049 3 2.00049H12Z" fill="black"/>
</svg>
